<?xml version="1.0" standalone="no"?>
<!DOCTYPE svg PUBLIC "-//W3C//DTD SVG 20010904//EN"
 "http://www.w3.org/TR/2001/REC-SVG-20010904/DTD/svg10.dtd">
<svg version="1.0" xmlns="http://www.w3.org/2000/svg"
 width="90.000000pt" height="90.000000pt" viewBox="0 0 90.000000 90.000000"
 preserveAspectRatio="xMidYMid meet">
<metadata>
Created by potrace 1.16, written by Peter Selinger 2001-2019
</metadata>
<g transform="translate(0.000000,90.000000) scale(0.100000,-0.100000)"
fill="#000000" stroke="none">
<path d="M115 725 c-19 -18 -25 -35 -25 -65 0 -75 70 -112 145 -78 18 8 29 8
36 1 7 -7 0 -17 -25 -33 -86 -53 -87 -96 -4 -244 34 -61 72 -121 85 -133 l22
-23 -128 0 c-134 0 -150 -5 -135 -45 9 -23 719 -23 728 0 8 21 -3 45 -20 45
-8 0 -14 10 -14 24 0 13 -12 41 -26 62 -71 105 -139 200 -149 206 -25 18 -68
6 -118 -31 -28 -22 -54 -38 -58 -35 -4 2 -21 29 -39 60 l-32 57 31 44 c17 24
31 55 31 68 0 25 -17 33 -108 51 -25 5 -36 15 -47 40 -16 39 -41 54 -90 54
-25 0 -43 -8 -60 -25z m596 -557 c9 -17 0 -18 -138 -18 -98 1 -143 4 -132 10
9 5 42 42 74 81 l57 71 65 -64 c35 -34 69 -71 74 -80z"/>
</g>
</svg>
